<mxfile host="Electron" agent="Mozilla/5.0 (Windows NT 10.0; Win64; x64) AppleWebKit/537.36 (KHTML, like Gecko) draw.io/26.1.1 Chrome/132.0.6834.210 Electron/34.3.3 Safari/537.36" version="26.1.1">
  <diagram id="R2lEEEUBdFMjLlhIrx00" name="Page-1">
    <mxGraphModel dx="2717" dy="887" grid="1" gridSize="10" guides="1" tooltips="1" connect="1" arrows="1" fold="1" page="1" pageScale="1" pageWidth="850" pageHeight="1100" math="0" shadow="0" extFonts="Permanent Marker^https://fonts.googleapis.com/css?family=Permanent+Marker">
      <root>
        <mxCell id="0" />
        <mxCell id="1" parent="0" />
        <mxCell id="OMhlv013ZeLLZO2xHLah-6" value="User" style="whiteSpace=wrap;html=1;align=center;" parent="1" vertex="1">
          <mxGeometry x="200" y="258" width="100" height="40" as="geometry" />
        </mxCell>
        <mxCell id="OMhlv013ZeLLZO2xHLah-8" value="user_id" style="ellipse;whiteSpace=wrap;html=1;align=center;fontStyle=4;" parent="1" vertex="1">
          <mxGeometry x="50" y="178" width="100" height="40" as="geometry" />
        </mxCell>
        <mxCell id="OMhlv013ZeLLZO2xHLah-9" value="full_name" style="ellipse;whiteSpace=wrap;html=1;align=center;" parent="1" vertex="1">
          <mxGeometry x="250" y="178" width="100" height="40" as="geometry" />
        </mxCell>
        <mxCell id="OMhlv013ZeLLZO2xHLah-11" value="first_name" style="ellipse;whiteSpace=wrap;html=1;align=center;" parent="1" vertex="1">
          <mxGeometry x="250" y="98" width="100" height="40" as="geometry" />
        </mxCell>
        <mxCell id="OMhlv013ZeLLZO2xHLah-12" value="last_name" style="ellipse;whiteSpace=wrap;html=1;align=center;" parent="1" vertex="1">
          <mxGeometry x="360" y="98" width="100" height="40" as="geometry" />
        </mxCell>
        <mxCell id="OMhlv013ZeLLZO2xHLah-13" value="email" style="ellipse;whiteSpace=wrap;html=1;align=center;" parent="1" vertex="1">
          <mxGeometry x="360" y="178" width="100" height="40" as="geometry" />
        </mxCell>
        <mxCell id="OMhlv013ZeLLZO2xHLah-14" value="phone_no" style="ellipse;whiteSpace=wrap;html=1;align=center;" parent="1" vertex="1">
          <mxGeometry x="10" y="268" width="100" height="40" as="geometry" />
        </mxCell>
        <mxCell id="OMhlv013ZeLLZO2xHLah-15" value="password" style="ellipse;whiteSpace=wrap;html=1;align=center;" parent="1" vertex="1">
          <mxGeometry x="150" y="108" width="100" height="40" as="geometry" />
        </mxCell>
        <mxCell id="OMhlv013ZeLLZO2xHLah-16" value="date_of_birth" style="ellipse;whiteSpace=wrap;html=1;align=center;" parent="1" vertex="1">
          <mxGeometry x="100" y="338" width="100" height="40" as="geometry" />
        </mxCell>
        <mxCell id="OMhlv013ZeLLZO2xHLah-17" value="age" style="ellipse;whiteSpace=wrap;html=1;align=center;dashed=1;" parent="1" vertex="1">
          <mxGeometry x="-10" y="328" width="100" height="40" as="geometry" />
        </mxCell>
        <mxCell id="OMhlv013ZeLLZO2xHLah-19" value="" style="endArrow=none;html=1;rounded=0;exitX=0.698;exitY=-0.012;exitDx=0;exitDy=0;exitPerimeter=0;entryX=0.403;entryY=1.063;entryDx=0;entryDy=0;entryPerimeter=0;" parent="1" source="OMhlv013ZeLLZO2xHLah-16" target="OMhlv013ZeLLZO2xHLah-6" edge="1">
          <mxGeometry width="50" height="50" relative="1" as="geometry">
            <mxPoint x="190" y="328" as="sourcePoint" />
            <mxPoint x="210" y="308" as="targetPoint" />
          </mxGeometry>
        </mxCell>
        <mxCell id="OMhlv013ZeLLZO2xHLah-20" value="" style="endArrow=none;html=1;rounded=0;exitX=0.403;exitY=-0.062;exitDx=0;exitDy=0;entryX=0.585;entryY=0.923;entryDx=0;entryDy=0;entryPerimeter=0;exitPerimeter=0;" parent="1" source="OMhlv013ZeLLZO2xHLah-6" target="OMhlv013ZeLLZO2xHLah-15" edge="1">
          <mxGeometry width="50" height="50" relative="1" as="geometry">
            <mxPoint x="204.3200000000001" y="268" as="sourcePoint" />
            <mxPoint x="195.68594961907667" y="147.992535333756" as="targetPoint" />
          </mxGeometry>
        </mxCell>
        <mxCell id="OMhlv013ZeLLZO2xHLah-21" value="" style="endArrow=none;html=1;rounded=0;exitX=1;exitY=0;exitDx=0;exitDy=0;" parent="1" source="OMhlv013ZeLLZO2xHLah-6" target="OMhlv013ZeLLZO2xHLah-13" edge="1">
          <mxGeometry width="50" height="50" relative="1" as="geometry">
            <mxPoint x="190" y="328" as="sourcePoint" />
            <mxPoint x="240" y="278" as="targetPoint" />
          </mxGeometry>
        </mxCell>
        <mxCell id="OMhlv013ZeLLZO2xHLah-22" value="" style="endArrow=none;html=1;rounded=0;exitX=1;exitY=0.5;exitDx=0;exitDy=0;entryX=0;entryY=0.5;entryDx=0;entryDy=0;" parent="1" source="OMhlv013ZeLLZO2xHLah-14" target="OMhlv013ZeLLZO2xHLah-6" edge="1">
          <mxGeometry width="50" height="50" relative="1" as="geometry">
            <mxPoint x="190" y="328" as="sourcePoint" />
            <mxPoint x="240" y="278" as="targetPoint" />
          </mxGeometry>
        </mxCell>
        <mxCell id="OMhlv013ZeLLZO2xHLah-23" value="" style="endArrow=none;html=1;rounded=0;entryX=1;entryY=1;entryDx=0;entryDy=0;exitX=0.25;exitY=0;exitDx=0;exitDy=0;" parent="1" source="OMhlv013ZeLLZO2xHLah-6" target="OMhlv013ZeLLZO2xHLah-8" edge="1">
          <mxGeometry width="50" height="50" relative="1" as="geometry">
            <mxPoint x="190" y="328" as="sourcePoint" />
            <mxPoint x="240" y="278" as="targetPoint" />
          </mxGeometry>
        </mxCell>
        <mxCell id="OMhlv013ZeLLZO2xHLah-24" value="" style="endArrow=none;html=1;rounded=0;exitX=0.615;exitY=0.063;exitDx=0;exitDy=0;exitPerimeter=0;entryX=0;entryY=0.75;entryDx=0;entryDy=0;" parent="1" source="OMhlv013ZeLLZO2xHLah-17" target="OMhlv013ZeLLZO2xHLah-6" edge="1">
          <mxGeometry width="50" height="50" relative="1" as="geometry">
            <mxPoint x="120" y="418" as="sourcePoint" />
            <mxPoint x="130" y="388" as="targetPoint" />
            <Array as="points" />
          </mxGeometry>
        </mxCell>
        <mxCell id="OMhlv013ZeLLZO2xHLah-25" value="" style="endArrow=none;html=1;rounded=0;entryX=0.45;entryY=1.064;entryDx=0;entryDy=0;entryPerimeter=0;exitX=0.75;exitY=0;exitDx=0;exitDy=0;" parent="1" source="OMhlv013ZeLLZO2xHLah-6" target="OMhlv013ZeLLZO2xHLah-9" edge="1">
          <mxGeometry width="50" height="50" relative="1" as="geometry">
            <mxPoint x="190" y="328" as="sourcePoint" />
            <mxPoint x="240" y="278" as="targetPoint" />
          </mxGeometry>
        </mxCell>
        <mxCell id="OMhlv013ZeLLZO2xHLah-26" value="" style="endArrow=none;html=1;rounded=0;exitX=0.667;exitY=-0.023;exitDx=0;exitDy=0;exitPerimeter=0;entryX=0.45;entryY=1;entryDx=0;entryDy=0;entryPerimeter=0;" parent="1" source="OMhlv013ZeLLZO2xHLah-9" target="OMhlv013ZeLLZO2xHLah-11" edge="1">
          <mxGeometry width="50" height="50" relative="1" as="geometry">
            <mxPoint x="300" y="198" as="sourcePoint" />
            <mxPoint x="350" y="148" as="targetPoint" />
          </mxGeometry>
        </mxCell>
        <mxCell id="OMhlv013ZeLLZO2xHLah-27" value="" style="endArrow=none;html=1;rounded=0;exitX=1;exitY=0;exitDx=0;exitDy=0;entryX=0;entryY=1;entryDx=0;entryDy=0;" parent="1" source="OMhlv013ZeLLZO2xHLah-9" target="OMhlv013ZeLLZO2xHLah-12" edge="1">
          <mxGeometry width="50" height="50" relative="1" as="geometry">
            <mxPoint x="190" y="328" as="sourcePoint" />
            <mxPoint x="240" y="278" as="targetPoint" />
          </mxGeometry>
        </mxCell>
        <mxCell id="OMhlv013ZeLLZO2xHLah-36" value="Category" style="whiteSpace=wrap;html=1;align=center;" parent="1" vertex="1">
          <mxGeometry x="1577" y="779.9200000000001" width="100" height="40" as="geometry" />
        </mxCell>
        <mxCell id="OMhlv013ZeLLZO2xHLah-37" value="c_id" style="ellipse;whiteSpace=wrap;html=1;align=center;fontStyle=4;" parent="1" vertex="1">
          <mxGeometry x="1577" y="669.9200000000001" width="100" height="40" as="geometry" />
        </mxCell>
        <mxCell id="OMhlv013ZeLLZO2xHLah-38" value="c_name" style="ellipse;whiteSpace=wrap;html=1;align=center;" parent="1" vertex="1">
          <mxGeometry x="1727" y="709.9200000000001" width="100" height="40" as="geometry" />
        </mxCell>
        <mxCell id="OMhlv013ZeLLZO2xHLah-39" value="status" style="ellipse;whiteSpace=wrap;html=1;align=center;" parent="1" vertex="1">
          <mxGeometry x="1447" y="689.9200000000001" width="100" height="40" as="geometry" />
        </mxCell>
        <mxCell id="OMhlv013ZeLLZO2xHLah-41" value="" style="endArrow=none;html=1;rounded=0;entryX=0;entryY=1;entryDx=0;entryDy=0;exitX=1;exitY=0.5;exitDx=0;exitDy=0;" parent="1" source="OMhlv013ZeLLZO2xHLah-36" target="OMhlv013ZeLLZO2xHLah-38" edge="1">
          <mxGeometry relative="1" as="geometry">
            <mxPoint x="1687" y="629.9200000000001" as="sourcePoint" />
            <mxPoint x="1847" y="629.9200000000001" as="targetPoint" />
          </mxGeometry>
        </mxCell>
        <mxCell id="OMhlv013ZeLLZO2xHLah-42" value="" style="endArrow=none;html=1;rounded=0;entryX=0.403;entryY=1.067;entryDx=0;entryDy=0;entryPerimeter=0;exitX=0.663;exitY=0.006;exitDx=0;exitDy=0;exitPerimeter=0;" parent="1" source="OMhlv013ZeLLZO2xHLah-36" target="OMhlv013ZeLLZO2xHLah-37" edge="1">
          <mxGeometry relative="1" as="geometry">
            <mxPoint x="1687" y="719.9200000000001" as="sourcePoint" />
            <mxPoint x="1847" y="719.9200000000001" as="targetPoint" />
          </mxGeometry>
        </mxCell>
        <mxCell id="OMhlv013ZeLLZO2xHLah-44" value="Product" style="whiteSpace=wrap;html=1;align=center;" parent="1" vertex="1">
          <mxGeometry x="1036" y="769.9200000000001" width="100" height="40" as="geometry" />
        </mxCell>
        <mxCell id="OMhlv013ZeLLZO2xHLah-45" value="p_name" style="ellipse;whiteSpace=wrap;html=1;align=center;" parent="1" vertex="1">
          <mxGeometry x="1166" y="659.9200000000001" width="100" height="40" as="geometry" />
        </mxCell>
        <mxCell id="OMhlv013ZeLLZO2xHLah-46" value="p_id" style="ellipse;whiteSpace=wrap;html=1;align=center;fontStyle=4;" parent="1" vertex="1">
          <mxGeometry x="1080.6" y="629.9200000000001" width="100" height="40" as="geometry" />
        </mxCell>
        <mxCell id="OMhlv013ZeLLZO2xHLah-47" value="description" style="ellipse;whiteSpace=wrap;html=1;align=center;" parent="1" vertex="1">
          <mxGeometry x="1226" y="754.96" width="100" height="40" as="geometry" />
        </mxCell>
        <mxCell id="OMhlv013ZeLLZO2xHLah-52" value="base_price" style="ellipse;whiteSpace=wrap;html=1;align=center;" parent="1" vertex="1">
          <mxGeometry x="870" y="830" width="100" height="40" as="geometry" />
        </mxCell>
        <mxCell id="OMhlv013ZeLLZO2xHLah-56" value="" style="endArrow=none;html=1;rounded=0;entryX=0.25;entryY=0;entryDx=0;entryDy=0;exitX=1;exitY=1;exitDx=0;exitDy=0;" parent="1" source="OMhlv013ZeLLZO2xHLah-39" target="OMhlv013ZeLLZO2xHLah-36" edge="1">
          <mxGeometry relative="1" as="geometry">
            <mxPoint x="1667" y="519.9200000000001" as="sourcePoint" />
            <mxPoint x="1827" y="519.9200000000001" as="targetPoint" />
          </mxGeometry>
        </mxCell>
        <mxCell id="OMhlv013ZeLLZO2xHLah-57" value="" style="endArrow=none;html=1;rounded=0;entryX=0.633;entryY=-0.018;entryDx=0;entryDy=0;exitX=0.652;exitY=0.969;exitDx=0;exitDy=0;exitPerimeter=0;entryPerimeter=0;" parent="1" source="OMhlv013ZeLLZO2xHLah-46" target="OMhlv013ZeLLZO2xHLah-44" edge="1">
          <mxGeometry relative="1" as="geometry">
            <mxPoint x="926" y="649.9200000000001" as="sourcePoint" />
            <mxPoint x="1056" y="759.9200000000001" as="targetPoint" />
          </mxGeometry>
        </mxCell>
        <mxCell id="OMhlv013ZeLLZO2xHLah-58" value="" style="endArrow=none;html=1;rounded=0;entryX=0.75;entryY=0;entryDx=0;entryDy=0;exitX=0.39;exitY=1.094;exitDx=0;exitDy=0;exitPerimeter=0;" parent="1" source="OMhlv013ZeLLZO2xHLah-45" target="OMhlv013ZeLLZO2xHLah-44" edge="1">
          <mxGeometry relative="1" as="geometry">
            <mxPoint x="926" y="649.9200000000001" as="sourcePoint" />
            <mxPoint x="1086" y="649.9200000000001" as="targetPoint" />
          </mxGeometry>
        </mxCell>
        <mxCell id="OMhlv013ZeLLZO2xHLah-59" value="" style="endArrow=none;html=1;rounded=0;entryX=1;entryY=0.5;entryDx=0;entryDy=0;exitX=0;exitY=0.5;exitDx=0;exitDy=0;" parent="1" source="OMhlv013ZeLLZO2xHLah-47" target="OMhlv013ZeLLZO2xHLah-44" edge="1">
          <mxGeometry relative="1" as="geometry">
            <mxPoint x="926" y="649.9200000000001" as="sourcePoint" />
            <mxPoint x="1086" y="649.9200000000001" as="targetPoint" />
          </mxGeometry>
        </mxCell>
        <mxCell id="OMhlv013ZeLLZO2xHLah-60" value="" style="endArrow=none;html=1;rounded=0;entryX=0;entryY=0.5;entryDx=0;entryDy=0;exitX=0.63;exitY=0.158;exitDx=0;exitDy=0;exitPerimeter=0;" parent="1" source="OMhlv013ZeLLZO2xHLah-52" target="OMhlv013ZeLLZO2xHLah-44" edge="1">
          <mxGeometry relative="1" as="geometry">
            <mxPoint x="961" y="814.96" as="sourcePoint" />
            <mxPoint x="1086" y="649.9200000000001" as="targetPoint" />
          </mxGeometry>
        </mxCell>
        <mxCell id="OMhlv013ZeLLZO2xHLah-69" value="color" style="ellipse;whiteSpace=wrap;html=1;align=center;" parent="1" vertex="1">
          <mxGeometry x="1080.6" y="1024.96" width="100" height="40" as="geometry" />
        </mxCell>
        <mxCell id="OMhlv013ZeLLZO2xHLah-71" value="stock_quantity" style="ellipse;whiteSpace=wrap;html=1;align=center;" parent="1" vertex="1">
          <mxGeometry x="961" y="1134.96" width="100" height="40" as="geometry" />
        </mxCell>
        <mxCell id="OMhlv013ZeLLZO2xHLah-74" value="" style="endArrow=none;html=1;rounded=0;entryX=0.37;entryY=1.025;entryDx=0;entryDy=0;exitX=0.66;exitY=-0.008;exitDx=0;exitDy=0;entryPerimeter=0;exitPerimeter=0;" parent="1" source="0Y_rIjtRi29Lt4V_HM7w-16" target="OMhlv013ZeLLZO2xHLah-179" edge="1">
          <mxGeometry relative="1" as="geometry">
            <mxPoint x="1245.6" y="1144.96" as="sourcePoint" />
            <mxPoint x="1280.6" y="1044.96" as="targetPoint" />
          </mxGeometry>
        </mxCell>
        <mxCell id="OMhlv013ZeLLZO2xHLah-75" value="" style="endArrow=none;html=1;rounded=0;exitX=0.787;exitY=0.918;exitDx=0;exitDy=0;exitPerimeter=0;entryX=0.34;entryY=0.025;entryDx=0;entryDy=0;entryPerimeter=0;" parent="1" source="OMhlv013ZeLLZO2xHLah-69" target="0Y_rIjtRi29Lt4V_HM7w-16" edge="1">
          <mxGeometry relative="1" as="geometry">
            <mxPoint x="1250.6" y="1154.96" as="sourcePoint" />
            <mxPoint x="1210.6" y="1144.96" as="targetPoint" />
          </mxGeometry>
        </mxCell>
        <mxCell id="OMhlv013ZeLLZO2xHLah-76" value="" style="endArrow=none;html=1;rounded=0;exitX=1;exitY=1;exitDx=0;exitDy=0;entryX=0;entryY=0.5;entryDx=0;entryDy=0;" parent="1" source="OMhlv013ZeLLZO2xHLah-71" edge="1">
          <mxGeometry relative="1" as="geometry">
            <mxPoint x="1250.6" y="1154.96" as="sourcePoint" />
            <mxPoint x="1170.6" y="1164.96" as="targetPoint" />
          </mxGeometry>
        </mxCell>
        <mxCell id="OMhlv013ZeLLZO2xHLah-78" value="var_price" style="ellipse;whiteSpace=wrap;html=1;align=center;" parent="1" vertex="1">
          <mxGeometry x="1151" y="1274.96" width="100" height="40" as="geometry" />
        </mxCell>
        <mxCell id="OMhlv013ZeLLZO2xHLah-79" value="" style="endArrow=none;html=1;rounded=0;exitX=0.7;exitY=0;exitDx=0;exitDy=0;exitPerimeter=0;entryX=0.353;entryY=1.025;entryDx=0;entryDy=0;entryPerimeter=0;" parent="1" source="OMhlv013ZeLLZO2xHLah-78" target="0Y_rIjtRi29Lt4V_HM7w-16" edge="1">
          <mxGeometry relative="1" as="geometry">
            <mxPoint x="1250.6" y="1154.96" as="sourcePoint" />
            <mxPoint x="1204.6" y="1185.96" as="targetPoint" />
            <Array as="points" />
          </mxGeometry>
        </mxCell>
        <mxCell id="OMhlv013ZeLLZO2xHLah-89" value="Order" style="whiteSpace=wrap;html=1;align=center;" parent="1" vertex="1">
          <mxGeometry x="300.13" y="1380.62" width="100" height="40" as="geometry" />
        </mxCell>
        <mxCell id="OMhlv013ZeLLZO2xHLah-92" value="order_no." style="ellipse;whiteSpace=wrap;html=1;align=center;fontStyle=4;" parent="1" vertex="1">
          <mxGeometry x="210.13" y="1170.62" width="100" height="40" as="geometry" />
        </mxCell>
        <mxCell id="OMhlv013ZeLLZO2xHLah-93" value="shipping_fee" style="ellipse;whiteSpace=wrap;html=1;align=center;" parent="1" vertex="1">
          <mxGeometry x="60.13" y="1360.62" width="100" height="40" as="geometry" />
        </mxCell>
        <mxCell id="OMhlv013ZeLLZO2xHLah-97" value="" style="endArrow=none;html=1;rounded=0;exitX=0.25;exitY=0;exitDx=0;exitDy=0;entryX=0.595;entryY=1.042;entryDx=0;entryDy=0;entryPerimeter=0;" parent="1" source="OMhlv013ZeLLZO2xHLah-89" target="OMhlv013ZeLLZO2xHLah-92" edge="1">
          <mxGeometry relative="1" as="geometry">
            <mxPoint x="270.13" y="1320.62" as="sourcePoint" />
            <mxPoint x="430.13" y="1320.62" as="targetPoint" />
          </mxGeometry>
        </mxCell>
        <mxCell id="OMhlv013ZeLLZO2xHLah-98" value="" style="endArrow=none;html=1;rounded=0;exitX=0.953;exitY=0.646;exitDx=0;exitDy=0;exitPerimeter=0;entryX=0;entryY=0.5;entryDx=0;entryDy=0;" parent="1" source="OMhlv013ZeLLZO2xHLah-93" target="OMhlv013ZeLLZO2xHLah-89" edge="1">
          <mxGeometry relative="1" as="geometry">
            <mxPoint x="270.13" y="1320.62" as="sourcePoint" />
            <mxPoint x="430.13" y="1320.62" as="targetPoint" />
          </mxGeometry>
        </mxCell>
        <mxCell id="OMhlv013ZeLLZO2xHLah-99" value="" style="endArrow=none;html=1;rounded=0;exitX=1;exitY=0.5;exitDx=0;exitDy=0;entryX=0.25;entryY=1;entryDx=0;entryDy=0;" parent="1" source="KANl1AdUfgTi3s5k8iMK-31" target="OMhlv013ZeLLZO2xHLah-89" edge="1">
          <mxGeometry relative="1" as="geometry">
            <mxPoint x="147.93000000000018" y="1438.1400000000003" as="sourcePoint" />
            <mxPoint x="430.13" y="1320.62" as="targetPoint" />
          </mxGeometry>
        </mxCell>
        <mxCell id="OMhlv013ZeLLZO2xHLah-100" value="order_note" style="ellipse;whiteSpace=wrap;html=1;align=center;" parent="1" vertex="1">
          <mxGeometry x="550.13" y="1350.62" width="100" height="40" as="geometry" />
        </mxCell>
        <mxCell id="OMhlv013ZeLLZO2xHLah-103" value="" style="endArrow=none;html=1;rounded=0;entryX=0.245;entryY=0.896;entryDx=0;entryDy=0;entryPerimeter=0;exitX=1;exitY=0.5;exitDx=0;exitDy=0;" parent="1" source="OMhlv013ZeLLZO2xHLah-89" target="OMhlv013ZeLLZO2xHLah-100" edge="1">
          <mxGeometry relative="1" as="geometry">
            <mxPoint x="260.13" y="1380.62" as="sourcePoint" />
            <mxPoint x="420.13" y="1380.62" as="targetPoint" />
          </mxGeometry>
        </mxCell>
        <mxCell id="OMhlv013ZeLLZO2xHLah-104" value="payment_type" style="ellipse;whiteSpace=wrap;html=1;align=center;" parent="1" vertex="1">
          <mxGeometry x="550.13" y="1450.62" width="100" height="40" as="geometry" />
        </mxCell>
        <mxCell id="OMhlv013ZeLLZO2xHLah-106" value="payment_status" style="ellipse;whiteSpace=wrap;html=1;align=center;" parent="1" vertex="1">
          <mxGeometry x="445.13" y="1550.62" width="100" height="40" as="geometry" />
        </mxCell>
        <mxCell id="OMhlv013ZeLLZO2xHLah-108" value="" style="endArrow=none;html=1;rounded=0;entryX=0.5;entryY=0;entryDx=0;entryDy=0;exitX=0.5;exitY=1;exitDx=0;exitDy=0;" parent="1" source="OMhlv013ZeLLZO2xHLah-89" target="KANl1AdUfgTi3s5k8iMK-32" edge="1">
          <mxGeometry relative="1" as="geometry">
            <mxPoint x="260.13" y="1380.62" as="sourcePoint" />
            <mxPoint x="252.93000000000018" y="1517.3000000000002" as="targetPoint" />
          </mxGeometry>
        </mxCell>
        <mxCell id="OMhlv013ZeLLZO2xHLah-109" value="" style="endArrow=none;html=1;rounded=0;entryX=0.087;entryY=0.792;entryDx=0;entryDy=0;entryPerimeter=0;exitX=1;exitY=1;exitDx=0;exitDy=0;" parent="1" source="OMhlv013ZeLLZO2xHLah-89" target="OMhlv013ZeLLZO2xHLah-104" edge="1">
          <mxGeometry relative="1" as="geometry">
            <mxPoint x="370.13" y="1387.3000000000002" as="sourcePoint" />
            <mxPoint x="594.63" y="1400.62" as="targetPoint" />
          </mxGeometry>
        </mxCell>
        <mxCell id="OMhlv013ZeLLZO2xHLah-110" value="order_status" style="ellipse;whiteSpace=wrap;html=1;align=center;" parent="1" vertex="1">
          <mxGeometry x="340.13" y="1530.62" width="100" height="40" as="geometry" />
        </mxCell>
        <mxCell id="OMhlv013ZeLLZO2xHLah-111" value="" style="endArrow=none;html=1;rounded=0;entryX=0.362;entryY=-0.062;entryDx=0;entryDy=0;entryPerimeter=0;exitX=0.653;exitY=0.938;exitDx=0;exitDy=0;exitPerimeter=0;" parent="1" source="OMhlv013ZeLLZO2xHLah-89" target="OMhlv013ZeLLZO2xHLah-110" edge="1">
          <mxGeometry relative="1" as="geometry">
            <mxPoint x="260.13" y="1380.62" as="sourcePoint" />
            <mxPoint x="420.13" y="1380.62" as="targetPoint" />
          </mxGeometry>
        </mxCell>
        <mxCell id="OMhlv013ZeLLZO2xHLah-112" value="" style="endArrow=none;html=1;rounded=0;entryX=0;entryY=0;entryDx=0;entryDy=0;exitX=0.928;exitY=1.021;exitDx=0;exitDy=0;exitPerimeter=0;" parent="1" source="OMhlv013ZeLLZO2xHLah-89" target="OMhlv013ZeLLZO2xHLah-106" edge="1">
          <mxGeometry relative="1" as="geometry">
            <mxPoint x="260.13" y="1380.62" as="sourcePoint" />
            <mxPoint x="420.13" y="1380.62" as="targetPoint" />
          </mxGeometry>
        </mxCell>
        <mxCell id="OMhlv013ZeLLZO2xHLah-113" value="payment_method" style="ellipse;whiteSpace=wrap;html=1;align=center;" parent="1" vertex="1">
          <mxGeometry x="325.13" y="1180.62" width="100" height="40" as="geometry" />
        </mxCell>
        <mxCell id="OMhlv013ZeLLZO2xHLah-114" value="" style="endArrow=none;html=1;rounded=0;entryX=0.82;entryY=-0.083;entryDx=0;entryDy=0;entryPerimeter=0;exitX=0.5;exitY=1;exitDx=0;exitDy=0;" parent="1" source="OMhlv013ZeLLZO2xHLah-113" target="OMhlv013ZeLLZO2xHLah-89" edge="1">
          <mxGeometry relative="1" as="geometry">
            <mxPoint x="260.13" y="1280.62" as="sourcePoint" />
            <mxPoint x="420.13" y="1280.62" as="targetPoint" />
          </mxGeometry>
        </mxCell>
        <mxCell id="OMhlv013ZeLLZO2xHLah-122" value="quantity" style="ellipse;whiteSpace=wrap;html=1;align=center;" parent="1" vertex="1">
          <mxGeometry x="846.64" y="1350.62" width="100" height="40" as="geometry" />
        </mxCell>
        <mxCell id="OMhlv013ZeLLZO2xHLah-123" value="total_amount" style="ellipse;whiteSpace=wrap;html=1;align=center;" parent="1" vertex="1">
          <mxGeometry x="884.64" y="1590" width="100" height="40" as="geometry" />
        </mxCell>
        <mxCell id="OMhlv013ZeLLZO2xHLah-124" value="" style="endArrow=none;html=1;rounded=0;exitX=0.529;exitY=0.982;exitDx=0;exitDy=0;exitPerimeter=0;entryX=1;entryY=0;entryDx=0;entryDy=0;" parent="1" source="OMhlv013ZeLLZO2xHLah-145" target="0Y_rIjtRi29Lt4V_HM7w-17" edge="1">
          <mxGeometry relative="1" as="geometry">
            <mxPoint x="974.64" y="1379.72" as="sourcePoint" />
            <mxPoint x="1008.3400000000003" y="1457.7999999999997" as="targetPoint" />
          </mxGeometry>
        </mxCell>
        <mxCell id="OMhlv013ZeLLZO2xHLah-125" value="" style="endArrow=none;html=1;rounded=0;exitX=0.634;exitY=0.985;exitDx=0;exitDy=0;entryX=0;entryY=0;entryDx=0;entryDy=0;exitPerimeter=0;" parent="1" source="OMhlv013ZeLLZO2xHLah-122" target="0Y_rIjtRi29Lt4V_HM7w-17" edge="1">
          <mxGeometry relative="1" as="geometry">
            <mxPoint x="879.9953390593037" y="1414.142135623722" as="sourcePoint" />
            <mxPoint x="994.64" y="1470" as="targetPoint" />
          </mxGeometry>
        </mxCell>
        <mxCell id="OMhlv013ZeLLZO2xHLah-126" value="" style="endArrow=none;html=1;rounded=0;exitX=1;exitY=0;exitDx=0;exitDy=0;entryX=0.25;entryY=1;entryDx=0;entryDy=0;" parent="1" source="OMhlv013ZeLLZO2xHLah-123" target="0Y_rIjtRi29Lt4V_HM7w-17" edge="1">
          <mxGeometry relative="1" as="geometry">
            <mxPoint x="924.64" y="1490" as="sourcePoint" />
            <mxPoint x="1019.64" y="1500" as="targetPoint" />
          </mxGeometry>
        </mxCell>
        <mxCell id="OMhlv013ZeLLZO2xHLah-128" value="unit_price" style="ellipse;whiteSpace=wrap;html=1;align=center;" parent="1" vertex="1">
          <mxGeometry x="1004.64" y="1600" width="100" height="40" as="geometry" />
        </mxCell>
        <mxCell id="OMhlv013ZeLLZO2xHLah-129" value="" style="endArrow=none;html=1;rounded=0;exitX=0.5;exitY=0;exitDx=0;exitDy=0;entryX=0.5;entryY=1;entryDx=0;entryDy=0;" parent="1" source="OMhlv013ZeLLZO2xHLah-128" target="0Y_rIjtRi29Lt4V_HM7w-17" edge="1">
          <mxGeometry relative="1" as="geometry">
            <mxPoint x="984.64" y="1490" as="sourcePoint" />
            <mxPoint x="1044.6399999999999" y="1500" as="targetPoint" />
          </mxGeometry>
        </mxCell>
        <mxCell id="OMhlv013ZeLLZO2xHLah-134" value="full_address" style="ellipse;whiteSpace=wrap;html=1;align=center;" parent="1" vertex="1">
          <mxGeometry x="515.13" y="755.58" width="100" height="40" as="geometry" />
        </mxCell>
        <mxCell id="OMhlv013ZeLLZO2xHLah-135" value="province" style="ellipse;whiteSpace=wrap;html=1;align=center;" parent="1" vertex="1">
          <mxGeometry x="370.13" y="725.58" width="100" height="40" as="geometry" />
        </mxCell>
        <mxCell id="OMhlv013ZeLLZO2xHLah-145" value="order_item_id" style="ellipse;whiteSpace=wrap;html=1;align=center;" parent="1" vertex="1">
          <mxGeometry x="1110" y="1350.62" width="100" height="40" as="geometry" />
        </mxCell>
        <mxCell id="OMhlv013ZeLLZO2xHLah-146" value="zip_code" style="ellipse;whiteSpace=wrap;html=1;align=center;" parent="1" vertex="1">
          <mxGeometry x="170.13" y="775.58" width="100" height="40" as="geometry" />
        </mxCell>
        <mxCell id="OMhlv013ZeLLZO2xHLah-149" value="city" style="ellipse;whiteSpace=wrap;html=1;align=center;" parent="1" vertex="1">
          <mxGeometry x="140.13" y="885.58" width="100" height="40" as="geometry" />
        </mxCell>
        <mxCell id="OMhlv013ZeLLZO2xHLah-151" value="" style="endArrow=none;html=1;rounded=0;exitX=1;exitY=0;exitDx=0;exitDy=0;entryX=0;entryY=0.75;entryDx=0;entryDy=0;" parent="1" source="OMhlv013ZeLLZO2xHLah-149" target="51rex_NYxMbLoATLT2h5-26" edge="1">
          <mxGeometry relative="1" as="geometry">
            <mxPoint x="190.13" y="775.58" as="sourcePoint" />
            <mxPoint x="330.13" y="875.58" as="targetPoint" />
          </mxGeometry>
        </mxCell>
        <mxCell id="OMhlv013ZeLLZO2xHLah-152" value="" style="endArrow=none;html=1;rounded=0;exitX=1;exitY=1;exitDx=0;exitDy=0;entryX=0;entryY=0;entryDx=0;entryDy=0;" parent="1" source="OMhlv013ZeLLZO2xHLah-146" target="51rex_NYxMbLoATLT2h5-26" edge="1">
          <mxGeometry relative="1" as="geometry">
            <mxPoint x="190.13" y="775.58" as="sourcePoint" />
            <mxPoint x="330.13000000000045" y="855.58" as="targetPoint" />
          </mxGeometry>
        </mxCell>
        <mxCell id="OMhlv013ZeLLZO2xHLah-153" value="" style="endArrow=none;html=1;rounded=0;entryX=0.632;entryY=0.146;entryDx=0;entryDy=0;entryPerimeter=0;" parent="1" source="OMhlv013ZeLLZO2xHLah-135" target="51rex_NYxMbLoATLT2h5-26" edge="1">
          <mxGeometry relative="1" as="geometry">
            <mxPoint x="190.13" y="775.58" as="sourcePoint" />
            <mxPoint x="401.97000000000014" y="844.5799999999998" as="targetPoint" />
          </mxGeometry>
        </mxCell>
        <mxCell id="OMhlv013ZeLLZO2xHLah-154" value="" style="endArrow=none;html=1;rounded=0;entryX=0.5;entryY=1;entryDx=0;entryDy=0;exitX=1;exitY=0.25;exitDx=0;exitDy=0;" parent="1" source="51rex_NYxMbLoATLT2h5-26" target="OMhlv013ZeLLZO2xHLah-134" edge="1">
          <mxGeometry relative="1" as="geometry">
            <mxPoint x="450.13000000000045" y="845.58" as="sourcePoint" />
            <mxPoint x="350.13" y="775.58" as="targetPoint" />
          </mxGeometry>
        </mxCell>
        <mxCell id="OMhlv013ZeLLZO2xHLah-155" value="" style="endArrow=none;html=1;rounded=0;entryX=0;entryY=0.5;entryDx=0;entryDy=0;exitX=1;exitY=1;exitDx=0;exitDy=0;" parent="1" source="51rex_NYxMbLoATLT2h5-26" target="KANl1AdUfgTi3s5k8iMK-11" edge="1">
          <mxGeometry relative="1" as="geometry">
            <mxPoint x="490.13" y="865.58" as="sourcePoint" />
            <mxPoint x="594.7746609406726" y="891.437864376269" as="targetPoint" />
          </mxGeometry>
        </mxCell>
        <mxCell id="OMhlv013ZeLLZO2xHLah-156" value="landmark" style="ellipse;whiteSpace=wrap;html=1;align=center;" parent="1" vertex="1">
          <mxGeometry x="290.13" y="955.58" width="100" height="40" as="geometry" />
        </mxCell>
        <mxCell id="OMhlv013ZeLLZO2xHLah-157" value="" style="endArrow=none;html=1;rounded=0;entryX=0.25;entryY=1;entryDx=0;entryDy=0;exitX=0.5;exitY=0;exitDx=0;exitDy=0;" parent="1" source="OMhlv013ZeLLZO2xHLah-156" target="51rex_NYxMbLoATLT2h5-26" edge="1">
          <mxGeometry relative="1" as="geometry">
            <mxPoint x="190.13" y="775.58" as="sourcePoint" />
            <mxPoint x="391.25000000000034" y="885.7400000000001" as="targetPoint" />
          </mxGeometry>
        </mxCell>
        <mxCell id="OMhlv013ZeLLZO2xHLah-160" value="title" style="ellipse;whiteSpace=wrap;html=1;align=center;" parent="1" vertex="1">
          <mxGeometry x="1140" y="240" width="100" height="40" as="geometry" />
        </mxCell>
        <mxCell id="OMhlv013ZeLLZO2xHLah-161" value="status" style="ellipse;whiteSpace=wrap;html=1;align=center;" parent="1" vertex="1">
          <mxGeometry x="950" y="220" width="100" height="40" as="geometry" />
        </mxCell>
        <mxCell id="OMhlv013ZeLLZO2xHLah-162" value="written_review" style="ellipse;whiteSpace=wrap;html=1;align=center;" parent="1" vertex="1">
          <mxGeometry x="810" y="310" width="100" height="40" as="geometry" />
        </mxCell>
        <mxCell id="OMhlv013ZeLLZO2xHLah-164" value="rev_id" style="ellipse;whiteSpace=wrap;html=1;align=center;" parent="1" vertex="1">
          <mxGeometry x="780" y="410" width="100" height="40" as="geometry" />
        </mxCell>
        <mxCell id="OMhlv013ZeLLZO2xHLah-165" value="rating" style="ellipse;whiteSpace=wrap;html=1;align=center;" parent="1" vertex="1">
          <mxGeometry x="1200" y="380" width="100" height="40" as="geometry" />
        </mxCell>
        <mxCell id="OMhlv013ZeLLZO2xHLah-166" value="" style="endArrow=none;html=1;rounded=0;exitX=1;exitY=0.5;exitDx=0;exitDy=0;entryX=0;entryY=0.5;entryDx=0;entryDy=0;" parent="1" target="OMhlv013ZeLLZO2xHLah-165" edge="1">
          <mxGeometry relative="1" as="geometry">
            <mxPoint x="1110" y="400" as="sourcePoint" />
            <mxPoint x="1300" y="420" as="targetPoint" />
          </mxGeometry>
        </mxCell>
        <mxCell id="OMhlv013ZeLLZO2xHLah-167" value="" style="endArrow=none;html=1;rounded=0;exitX=0.75;exitY=0;exitDx=0;exitDy=0;entryX=0.306;entryY=0.99;entryDx=0;entryDy=0;entryPerimeter=0;" parent="1" target="OMhlv013ZeLLZO2xHLah-160" edge="1">
          <mxGeometry relative="1" as="geometry">
            <mxPoint x="1085" y="380" as="sourcePoint" />
            <mxPoint x="1300" y="420" as="targetPoint" />
          </mxGeometry>
        </mxCell>
        <mxCell id="OMhlv013ZeLLZO2xHLah-168" value="" style="endArrow=none;html=1;rounded=0;exitX=0.5;exitY=1;exitDx=0;exitDy=0;entryX=0.4;entryY=0;entryDx=0;entryDy=0;entryPerimeter=0;" parent="1" source="OMhlv013ZeLLZO2xHLah-161" edge="1">
          <mxGeometry relative="1" as="geometry">
            <mxPoint x="1005.9000000000005" y="257.24" as="sourcePoint" />
            <mxPoint x="1050" y="380" as="targetPoint" />
          </mxGeometry>
        </mxCell>
        <mxCell id="OMhlv013ZeLLZO2xHLah-169" value="" style="endArrow=none;html=1;rounded=0;exitX=0.947;exitY=0.74;exitDx=0;exitDy=0;exitPerimeter=0;entryX=0;entryY=0.5;entryDx=0;entryDy=0;" parent="1" source="OMhlv013ZeLLZO2xHLah-162" edge="1">
          <mxGeometry relative="1" as="geometry">
            <mxPoint x="1140" y="420" as="sourcePoint" />
            <mxPoint x="1010" y="400" as="targetPoint" />
          </mxGeometry>
        </mxCell>
        <mxCell id="OMhlv013ZeLLZO2xHLah-170" value="" style="endArrow=none;html=1;rounded=0;entryX=0;entryY=0.75;entryDx=0;entryDy=0;exitX=1;exitY=0;exitDx=0;exitDy=0;" parent="1" source="OMhlv013ZeLLZO2xHLah-164" edge="1">
          <mxGeometry relative="1" as="geometry">
            <mxPoint x="1140" y="420" as="sourcePoint" />
            <mxPoint x="1010" y="410" as="targetPoint" />
          </mxGeometry>
        </mxCell>
        <mxCell id="OMhlv013ZeLLZO2xHLah-179" value="v_id" style="ellipse;whiteSpace=wrap;html=1;align=center;" parent="1" vertex="1">
          <mxGeometry x="1250.6" y="1014.96" width="100" height="40" as="geometry" />
        </mxCell>
        <mxCell id="OMhlv013ZeLLZO2xHLah-193" value="has" style="shape=rhombus;perimeter=rhombusPerimeter;whiteSpace=wrap;html=1;align=center;" parent="1" vertex="1">
          <mxGeometry x="180.13" y="665.58" width="120" height="60" as="geometry" />
        </mxCell>
        <mxCell id="OMhlv013ZeLLZO2xHLah-199" value="places" style="shape=rhombus;perimeter=rhombusPerimeter;whiteSpace=wrap;html=1;align=center;" parent="1" vertex="1">
          <mxGeometry x="-59.87" y="980" width="120" height="60" as="geometry" />
        </mxCell>
        <mxCell id="OMhlv013ZeLLZO2xHLah-202" value="" style="shape=link;html=1;rounded=0;entryX=0.5;entryY=1;entryDx=0;entryDy=0;exitX=0;exitY=0;exitDx=0;exitDy=0;" parent="1" source="OMhlv013ZeLLZO2xHLah-89" target="OMhlv013ZeLLZO2xHLah-199" edge="1">
          <mxGeometry relative="1" as="geometry">
            <mxPoint x="250.13" y="1360.62" as="sourcePoint" />
            <mxPoint x="0.13" y="1090.6200000000003" as="targetPoint" />
          </mxGeometry>
        </mxCell>
        <mxCell id="OMhlv013ZeLLZO2xHLah-203" value="N" style="resizable=0;html=1;whiteSpace=wrap;align=right;verticalAlign=bottom;" parent="OMhlv013ZeLLZO2xHLah-202" connectable="0" vertex="1">
          <mxGeometry x="1" relative="1" as="geometry" />
        </mxCell>
        <mxCell id="OMhlv013ZeLLZO2xHLah-206" value="leaves" style="shape=rhombus;perimeter=rhombusPerimeter;whiteSpace=wrap;html=1;align=center;" parent="1" vertex="1">
          <mxGeometry x="750" y="580" width="120" height="60" as="geometry" />
        </mxCell>
        <mxCell id="OMhlv013ZeLLZO2xHLah-207" value="" style="shape=link;html=1;rounded=0;exitX=0;exitY=1;exitDx=0;exitDy=0;entryX=1;entryY=0.5;entryDx=0;entryDy=0;" parent="1" source="u-cxm0eaMi2ZaoIO6NFg-2" edge="1" target="OMhlv013ZeLLZO2xHLah-206">
          <mxGeometry relative="1" as="geometry">
            <mxPoint x="1730" y="640" as="sourcePoint" />
            <mxPoint x="820" y="500" as="targetPoint" />
          </mxGeometry>
        </mxCell>
        <mxCell id="OMhlv013ZeLLZO2xHLah-208" value="N" style="resizable=0;html=1;whiteSpace=wrap;align=right;verticalAlign=bottom;" parent="OMhlv013ZeLLZO2xHLah-207" connectable="0" vertex="1">
          <mxGeometry x="1" relative="1" as="geometry" />
        </mxCell>
        <mxCell id="OMhlv013ZeLLZO2xHLah-211" value="belongs to a" style="shape=rhombus;perimeter=rhombusPerimeter;whiteSpace=wrap;html=1;align=center;" parent="1" vertex="1">
          <mxGeometry x="1391" y="844.96" width="120" height="60" as="geometry" />
        </mxCell>
        <mxCell id="OMhlv013ZeLLZO2xHLah-212" value="" style="shape=link;html=1;rounded=0;entryX=0;entryY=0.5;entryDx=0;entryDy=0;exitX=1;exitY=1;exitDx=0;exitDy=0;" parent="1" source="OMhlv013ZeLLZO2xHLah-44" target="OMhlv013ZeLLZO2xHLah-211" edge="1">
          <mxGeometry relative="1" as="geometry">
            <mxPoint x="1230" y="950" as="sourcePoint" />
            <mxPoint x="126" y="804.96" as="targetPoint" />
          </mxGeometry>
        </mxCell>
        <mxCell id="OMhlv013ZeLLZO2xHLah-213" value="N" style="resizable=0;html=1;whiteSpace=wrap;align=right;verticalAlign=bottom;" parent="OMhlv013ZeLLZO2xHLah-212" connectable="0" vertex="1">
          <mxGeometry x="1" relative="1" as="geometry" />
        </mxCell>
        <mxCell id="OMhlv013ZeLLZO2xHLah-214" value="" style="endArrow=none;html=1;rounded=0;entryX=1;entryY=0.5;entryDx=0;entryDy=0;exitX=0.5;exitY=1;exitDx=0;exitDy=0;" parent="1" source="OMhlv013ZeLLZO2xHLah-36" target="OMhlv013ZeLLZO2xHLah-211" edge="1">
          <mxGeometry relative="1" as="geometry">
            <mxPoint x="1627" y="930" as="sourcePoint" />
            <mxPoint x="-324" y="887.83" as="targetPoint" />
          </mxGeometry>
        </mxCell>
        <mxCell id="OMhlv013ZeLLZO2xHLah-215" value="1" style="resizable=0;html=1;whiteSpace=wrap;align=right;verticalAlign=bottom;" parent="OMhlv013ZeLLZO2xHLah-214" connectable="0" vertex="1">
          <mxGeometry x="1" relative="1" as="geometry" />
        </mxCell>
        <mxCell id="OMhlv013ZeLLZO2xHLah-220" value="" style="shape=link;html=1;rounded=0;exitX=0;exitY=0;exitDx=0;exitDy=0;entryX=0.5;entryY=1;entryDx=0;entryDy=0;" parent="1" source="0Y_rIjtRi29Lt4V_HM7w-16" target="0Y_rIjtRi29Lt4V_HM7w-9" edge="1">
          <mxGeometry relative="1" as="geometry">
            <mxPoint x="950" y="1030" as="sourcePoint" />
            <mxPoint x="940" y="1030" as="targetPoint" />
          </mxGeometry>
        </mxCell>
        <mxCell id="OMhlv013ZeLLZO2xHLah-221" value="N" style="resizable=0;html=1;whiteSpace=wrap;align=right;verticalAlign=bottom;" parent="OMhlv013ZeLLZO2xHLah-220" connectable="0" vertex="1">
          <mxGeometry x="1" relative="1" as="geometry" />
        </mxCell>
        <mxCell id="OMhlv013ZeLLZO2xHLah-244" value="" style="shape=link;html=1;rounded=0;entryX=1;entryY=0.5;entryDx=0;entryDy=0;exitX=0;exitY=0.5;exitDx=0;exitDy=0;" parent="1" source="0Y_rIjtRi29Lt4V_HM7w-17" target="0Y_rIjtRi29Lt4V_HM7w-15" edge="1">
          <mxGeometry relative="1" as="geometry">
            <mxPoint x="733.3600000000002" y="1584.9800000000005" as="sourcePoint" />
            <mxPoint x="936.64" y="1480" as="targetPoint" />
          </mxGeometry>
        </mxCell>
        <mxCell id="OMhlv013ZeLLZO2xHLah-245" value="N" style="resizable=0;html=1;whiteSpace=wrap;align=right;verticalAlign=bottom;" parent="OMhlv013ZeLLZO2xHLah-244" connectable="0" vertex="1">
          <mxGeometry x="1" relative="1" as="geometry" />
        </mxCell>
        <mxCell id="OMhlv013ZeLLZO2xHLah-251" value="" style="shape=link;html=1;rounded=0;exitX=0.9;exitY=0;exitDx=0;exitDy=0;exitPerimeter=0;entryX=0;entryY=0.5;entryDx=0;entryDy=0;" parent="1" source="OMhlv013ZeLLZO2xHLah-89" target="0Y_rIjtRi29Lt4V_HM7w-13" edge="1">
          <mxGeometry relative="1" as="geometry">
            <mxPoint x="495.13" y="1075.58" as="sourcePoint" />
            <mxPoint x="550.13" y="1110.62" as="targetPoint" />
          </mxGeometry>
        </mxCell>
        <mxCell id="OMhlv013ZeLLZO2xHLah-252" value="N" style="resizable=0;html=1;whiteSpace=wrap;align=right;verticalAlign=bottom;" parent="OMhlv013ZeLLZO2xHLah-251" connectable="0" vertex="1">
          <mxGeometry x="1" relative="1" as="geometry" />
        </mxCell>
        <mxCell id="OMhlv013ZeLLZO2xHLah-260" value="" style="shape=link;html=1;rounded=0;entryX=0.5;entryY=0;entryDx=0;entryDy=0;exitX=0.5;exitY=1;exitDx=0;exitDy=0;" parent="1" source="u-cxm0eaMi2ZaoIO6NFg-2" edge="1" target="0Y_rIjtRi29Lt4V_HM7w-12">
          <mxGeometry relative="1" as="geometry">
            <mxPoint x="1140" y="510" as="sourcePoint" />
            <mxPoint x="1060" y="420" as="targetPoint" />
          </mxGeometry>
        </mxCell>
        <mxCell id="OMhlv013ZeLLZO2xHLah-261" value="N" style="resizable=0;html=1;whiteSpace=wrap;align=right;verticalAlign=bottom;" parent="OMhlv013ZeLLZO2xHLah-260" connectable="0" vertex="1">
          <mxGeometry x="1" relative="1" as="geometry" />
        </mxCell>
        <mxCell id="OMhlv013ZeLLZO2xHLah-269" value="adds" style="shape=rhombus;perimeter=rhombusPerimeter;whiteSpace=wrap;html=1;align=center;" parent="1" vertex="1">
          <mxGeometry x="750" y="750" width="120" height="60" as="geometry" />
        </mxCell>
        <mxCell id="OMhlv013ZeLLZO2xHLah-274" value="manages" style="shape=rhombus;perimeter=rhombusPerimeter;whiteSpace=wrap;html=1;align=center;" parent="1" vertex="1">
          <mxGeometry x="750" y="664.96" width="120" height="60" as="geometry" />
        </mxCell>
        <mxCell id="KANl1AdUfgTi3s5k8iMK-11" value="S_id" style="ellipse;whiteSpace=wrap;html=1;align=center;" parent="1" vertex="1">
          <mxGeometry x="600.13" y="875.58" width="100" height="40" as="geometry" />
        </mxCell>
        <mxCell id="KANl1AdUfgTi3s5k8iMK-14" value="Status" style="ellipse;whiteSpace=wrap;html=1;align=center;" parent="1" vertex="1">
          <mxGeometry x="1266" y="694.96" width="100" height="40" as="geometry" />
        </mxCell>
        <mxCell id="KANl1AdUfgTi3s5k8iMK-15" value="" style="endArrow=none;html=1;rounded=0;exitX=1;exitY=0;exitDx=0;exitDy=0;entryX=0;entryY=0.5;entryDx=0;entryDy=0;" parent="1" source="OMhlv013ZeLLZO2xHLah-44" target="KANl1AdUfgTi3s5k8iMK-14" edge="1">
          <mxGeometry relative="1" as="geometry">
            <mxPoint x="1196" y="684.96" as="sourcePoint" />
            <mxPoint x="1356" y="684.96" as="targetPoint" />
          </mxGeometry>
        </mxCell>
        <mxCell id="KANl1AdUfgTi3s5k8iMK-18" value="Status" style="ellipse;whiteSpace=wrap;html=1;align=center;" parent="1" vertex="1">
          <mxGeometry x="1361" y="1144.96" width="100" height="40" as="geometry" />
        </mxCell>
        <mxCell id="KANl1AdUfgTi3s5k8iMK-19" value="" style="endArrow=none;html=1;rounded=0;entryX=0;entryY=0.5;entryDx=0;entryDy=0;exitX=1;exitY=0.25;exitDx=0;exitDy=0;" parent="1" source="0Y_rIjtRi29Lt4V_HM7w-16" target="KANl1AdUfgTi3s5k8iMK-18" edge="1">
          <mxGeometry relative="1" as="geometry">
            <mxPoint x="1280" y="1165" as="sourcePoint" />
            <mxPoint x="1221" y="1104.96" as="targetPoint" />
          </mxGeometry>
        </mxCell>
        <mxCell id="KANl1AdUfgTi3s5k8iMK-20" value="image_url" style="ellipse;whiteSpace=wrap;html=1;align=center;" parent="1" vertex="1">
          <mxGeometry x="1331" y="1224.96" width="100" height="40" as="geometry" />
        </mxCell>
        <mxCell id="KANl1AdUfgTi3s5k8iMK-21" value="" style="endArrow=none;html=1;rounded=0;entryX=0;entryY=0;entryDx=0;entryDy=0;exitX=1;exitY=1;exitDx=0;exitDy=0;" parent="1" source="0Y_rIjtRi29Lt4V_HM7w-16" target="KANl1AdUfgTi3s5k8iMK-20" edge="1">
          <mxGeometry relative="1" as="geometry">
            <mxPoint x="1270.6" y="1184.96" as="sourcePoint" />
            <mxPoint x="1321" y="1204.96" as="targetPoint" />
          </mxGeometry>
        </mxCell>
        <mxCell id="KANl1AdUfgTi3s5k8iMK-22" value="image_url" style="ellipse;whiteSpace=wrap;html=1;align=center;" parent="1" vertex="1">
          <mxGeometry x="1066" y="854.96" width="100" height="40" as="geometry" />
        </mxCell>
        <mxCell id="KANl1AdUfgTi3s5k8iMK-23" value="" style="endArrow=none;html=1;rounded=0;exitX=0.5;exitY=0;exitDx=0;exitDy=0;entryX=0.75;entryY=1;entryDx=0;entryDy=0;" parent="1" source="KANl1AdUfgTi3s5k8iMK-22" target="OMhlv013ZeLLZO2xHLah-44" edge="1">
          <mxGeometry relative="1" as="geometry">
            <mxPoint x="1206" y="884.96" as="sourcePoint" />
            <mxPoint x="1116" y="814.96" as="targetPoint" />
          </mxGeometry>
        </mxCell>
        <mxCell id="KANl1AdUfgTi3s5k8iMK-26" value="order_date" style="ellipse;whiteSpace=wrap;html=1;align=center;" parent="1" vertex="1">
          <mxGeometry x="550.13" y="1280.62" width="100" height="40" as="geometry" />
        </mxCell>
        <mxCell id="KANl1AdUfgTi3s5k8iMK-27" value="" style="endArrow=none;html=1;rounded=0;entryX=0;entryY=0.5;entryDx=0;entryDy=0;exitX=1;exitY=0;exitDx=0;exitDy=0;" parent="1" source="OMhlv013ZeLLZO2xHLah-89" target="KANl1AdUfgTi3s5k8iMK-26" edge="1">
          <mxGeometry relative="1" as="geometry">
            <mxPoint x="400.13" y="1400.62" as="sourcePoint" />
            <mxPoint x="560.13" y="1400.62" as="targetPoint" />
          </mxGeometry>
        </mxCell>
        <mxCell id="KANl1AdUfgTi3s5k8iMK-28" value="total_amount" style="ellipse;whiteSpace=wrap;html=1;align=center;dashed=1;" parent="1" vertex="1">
          <mxGeometry x="100.13" y="1500.62" width="100" height="40" as="geometry" />
        </mxCell>
        <mxCell id="KANl1AdUfgTi3s5k8iMK-29" value="" style="endArrow=none;html=1;rounded=0;exitX=1;exitY=0;exitDx=0;exitDy=0;entryX=0.185;entryY=1.118;entryDx=0;entryDy=0;entryPerimeter=0;" parent="1" source="KANl1AdUfgTi3s5k8iMK-28" target="OMhlv013ZeLLZO2xHLah-89" edge="1">
          <mxGeometry relative="1" as="geometry">
            <mxPoint x="400.13" y="1400.62" as="sourcePoint" />
            <mxPoint x="560.13" y="1400.62" as="targetPoint" />
          </mxGeometry>
        </mxCell>
        <mxCell id="KANl1AdUfgTi3s5k8iMK-31" value="net_payable" style="ellipse;whiteSpace=wrap;html=1;align=center;dashed=1;" parent="1" vertex="1">
          <mxGeometry x="50.13" y="1430.62" width="100" height="40" as="geometry" />
        </mxCell>
        <mxCell id="KANl1AdUfgTi3s5k8iMK-32" value="tracking id" style="ellipse;whiteSpace=wrap;html=1;align=center;" parent="1" vertex="1">
          <mxGeometry x="210.13" y="1520.62" width="100" height="40" as="geometry" />
        </mxCell>
        <mxCell id="KANl1AdUfgTi3s5k8iMK-33" value="transaction_id" style="ellipse;whiteSpace=wrap;html=1;align=center;" parent="1" vertex="1">
          <mxGeometry x="580.13" y="1530.62" width="100" height="40" as="geometry" />
        </mxCell>
        <mxCell id="KANl1AdUfgTi3s5k8iMK-34" value="" style="endArrow=none;html=1;rounded=0;entryX=0;entryY=0.5;entryDx=0;entryDy=0;exitX=1;exitY=1;exitDx=0;exitDy=0;" parent="1" source="OMhlv013ZeLLZO2xHLah-89" target="KANl1AdUfgTi3s5k8iMK-33" edge="1">
          <mxGeometry relative="1" as="geometry">
            <mxPoint x="400.13" y="1400.62" as="sourcePoint" />
            <mxPoint x="560.13" y="1400.62" as="targetPoint" />
          </mxGeometry>
        </mxCell>
        <mxCell id="doQQVUyxEDmueUeuw4_5-1" value="" style="endArrow=none;html=1;rounded=0;exitX=0.117;exitY=0.994;exitDx=0;exitDy=0;exitPerimeter=0;entryX=0.5;entryY=0;entryDx=0;entryDy=0;" parent="1" source="OMhlv013ZeLLZO2xHLah-44" target="0Y_rIjtRi29Lt4V_HM7w-9" edge="1">
          <mxGeometry relative="1" as="geometry">
            <mxPoint x="900" y="959.96" as="sourcePoint" />
            <mxPoint x="1070" y="980" as="targetPoint" />
          </mxGeometry>
        </mxCell>
        <mxCell id="doQQVUyxEDmueUeuw4_5-2" value="1" style="resizable=0;html=1;whiteSpace=wrap;align=right;verticalAlign=bottom;" parent="doQQVUyxEDmueUeuw4_5-1" connectable="0" vertex="1">
          <mxGeometry x="1" relative="1" as="geometry" />
        </mxCell>
        <mxCell id="51rex_NYxMbLoATLT2h5-1" value="Customer" style="whiteSpace=wrap;html=1;align=center;" parent="1" vertex="1">
          <mxGeometry x="170" y="508" width="100" height="40" as="geometry" />
        </mxCell>
        <mxCell id="51rex_NYxMbLoATLT2h5-2" value="Admin" style="whiteSpace=wrap;html=1;align=center;" parent="1" vertex="1">
          <mxGeometry x="315" y="508" width="100" height="40" as="geometry" />
        </mxCell>
        <mxCell id="51rex_NYxMbLoATLT2h5-12" value="" style="shape=link;html=1;rounded=0;exitX=0.375;exitY=0;exitDx=0;exitDy=0;entryX=0.584;entryY=0.991;entryDx=0;entryDy=0;entryPerimeter=0;exitPerimeter=0;" parent="1" source="51rex_NYxMbLoATLT2h5-21" target="OMhlv013ZeLLZO2xHLah-6" edge="1">
          <mxGeometry relative="1" as="geometry">
            <mxPoint x="265" y="378" as="sourcePoint" />
            <mxPoint x="480" y="398" as="targetPoint" />
          </mxGeometry>
        </mxCell>
        <mxCell id="51rex_NYxMbLoATLT2h5-13" value="1" style="resizable=0;html=1;whiteSpace=wrap;align=right;verticalAlign=bottom;" parent="51rex_NYxMbLoATLT2h5-12" connectable="0" vertex="1">
          <mxGeometry x="1" relative="1" as="geometry" />
        </mxCell>
        <mxCell id="51rex_NYxMbLoATLT2h5-21" value="d" style="ellipse;whiteSpace=wrap;html=1;aspect=fixed;" parent="1" vertex="1">
          <mxGeometry x="240" y="378" width="40" height="40" as="geometry" />
        </mxCell>
        <mxCell id="51rex_NYxMbLoATLT2h5-22" value="status" style="ellipse;whiteSpace=wrap;html=1;align=center;" parent="1" vertex="1">
          <mxGeometry x="1154.6399999999999" y="1450" width="100" height="40" as="geometry" />
        </mxCell>
        <mxCell id="51rex_NYxMbLoATLT2h5-23" value="" style="endArrow=none;html=1;rounded=0;exitX=1;exitY=0.5;exitDx=0;exitDy=0;entryX=0.057;entryY=0.786;entryDx=0;entryDy=0;entryPerimeter=0;" parent="1" source="0Y_rIjtRi29Lt4V_HM7w-17" target="51rex_NYxMbLoATLT2h5-22" edge="1">
          <mxGeometry relative="1" as="geometry">
            <mxPoint x="1094.6399999999999" y="1460" as="sourcePoint" />
            <mxPoint x="1154.6399999999999" y="1470" as="targetPoint" />
          </mxGeometry>
        </mxCell>
        <mxCell id="51rex_NYxMbLoATLT2h5-26" value="Shipping address" style="whiteSpace=wrap;html=1;align=center;" parent="1" vertex="1">
          <mxGeometry x="350.13" y="845.58" width="100" height="40" as="geometry" />
        </mxCell>
        <mxCell id="51rex_NYxMbLoATLT2h5-36" value="" style="endArrow=none;html=1;rounded=0;exitX=0.5;exitY=1;exitDx=0;exitDy=0;entryX=0.5;entryY=0;entryDx=0;entryDy=0;" parent="1" source="51rex_NYxMbLoATLT2h5-1" target="OMhlv013ZeLLZO2xHLah-193" edge="1">
          <mxGeometry relative="1" as="geometry">
            <mxPoint x="460" y="870" as="sourcePoint" />
            <mxPoint x="340" y="700" as="targetPoint" />
          </mxGeometry>
        </mxCell>
        <mxCell id="51rex_NYxMbLoATLT2h5-37" value="1" style="resizable=0;html=1;whiteSpace=wrap;align=right;verticalAlign=bottom;" parent="51rex_NYxMbLoATLT2h5-36" connectable="0" vertex="1">
          <mxGeometry x="1" relative="1" as="geometry" />
        </mxCell>
        <mxCell id="51rex_NYxMbLoATLT2h5-38" value="" style="shape=link;html=1;rounded=0;exitX=0.1;exitY=0.126;exitDx=0;exitDy=0;exitPerimeter=0;entryX=0.5;entryY=1;entryDx=0;entryDy=0;" parent="1" source="51rex_NYxMbLoATLT2h5-26" target="OMhlv013ZeLLZO2xHLah-193" edge="1">
          <mxGeometry relative="1" as="geometry">
            <mxPoint x="430.13" y="695.58" as="sourcePoint" />
            <mxPoint x="490.13" y="630.62" as="targetPoint" />
          </mxGeometry>
        </mxCell>
        <mxCell id="51rex_NYxMbLoATLT2h5-39" value="N" style="resizable=0;html=1;whiteSpace=wrap;align=right;verticalAlign=bottom;" parent="51rex_NYxMbLoATLT2h5-38" connectable="0" vertex="1">
          <mxGeometry x="1" relative="1" as="geometry" />
        </mxCell>
        <mxCell id="51rex_NYxMbLoATLT2h5-40" value="" style="endArrow=none;html=1;rounded=0;entryX=1;entryY=0;entryDx=0;entryDy=0;exitX=0.5;exitY=1;exitDx=0;exitDy=0;" parent="1" source="51rex_NYxMbLoATLT2h5-26" target="0Y_rIjtRi29Lt4V_HM7w-13" edge="1">
          <mxGeometry relative="1" as="geometry">
            <mxPoint x="590.13" y="1000.62" as="sourcePoint" />
            <mxPoint x="710.13" y="1405.58" as="targetPoint" />
          </mxGeometry>
        </mxCell>
        <mxCell id="51rex_NYxMbLoATLT2h5-41" value="1" style="resizable=0;html=1;whiteSpace=wrap;align=right;verticalAlign=bottom;" parent="51rex_NYxMbLoATLT2h5-40" connectable="0" vertex="1">
          <mxGeometry x="1" relative="1" as="geometry" />
        </mxCell>
        <mxCell id="70sWbRmuA3pQO4mpQfJC-2" value="" style="endArrow=none;html=1;rounded=0;exitX=0.163;exitY=1.042;exitDx=0;exitDy=0;exitPerimeter=0;entryX=0.5;entryY=0;entryDx=0;entryDy=0;" parent="1" source="51rex_NYxMbLoATLT2h5-1" target="OMhlv013ZeLLZO2xHLah-199" edge="1">
          <mxGeometry relative="1" as="geometry">
            <mxPoint x="60" y="1050" as="sourcePoint" />
            <mxPoint x="30" y="840" as="targetPoint" />
          </mxGeometry>
        </mxCell>
        <mxCell id="70sWbRmuA3pQO4mpQfJC-3" value="1" style="resizable=0;html=1;whiteSpace=wrap;align=right;verticalAlign=bottom;" parent="70sWbRmuA3pQO4mpQfJC-2" connectable="0" vertex="1">
          <mxGeometry x="1" relative="1" as="geometry">
            <mxPoint as="offset" />
          </mxGeometry>
        </mxCell>
        <mxCell id="70sWbRmuA3pQO4mpQfJC-6" value="" style="endArrow=none;html=1;rounded=0;entryX=0;entryY=0.5;entryDx=0;entryDy=0;exitX=0.75;exitY=1;exitDx=0;exitDy=0;" parent="1" source="51rex_NYxMbLoATLT2h5-1" target="OMhlv013ZeLLZO2xHLah-206" edge="1">
          <mxGeometry relative="1" as="geometry">
            <mxPoint x="590" y="800" as="sourcePoint" />
            <mxPoint x="830" y="640" as="targetPoint" />
          </mxGeometry>
        </mxCell>
        <mxCell id="70sWbRmuA3pQO4mpQfJC-7" value="1" style="resizable=0;html=1;whiteSpace=wrap;align=right;verticalAlign=bottom;" parent="70sWbRmuA3pQO4mpQfJC-6" connectable="0" vertex="1">
          <mxGeometry x="1" relative="1" as="geometry" />
        </mxCell>
        <mxCell id="70sWbRmuA3pQO4mpQfJC-8" value="" style="endArrow=none;html=1;rounded=0;entryX=0;entryY=0.5;entryDx=0;entryDy=0;exitX=0.75;exitY=1;exitDx=0;exitDy=0;" parent="1" source="51rex_NYxMbLoATLT2h5-2" target="OMhlv013ZeLLZO2xHLah-274" edge="1">
          <mxGeometry relative="1" as="geometry">
            <mxPoint x="500" y="800" as="sourcePoint" />
            <mxPoint x="940" y="740" as="targetPoint" />
          </mxGeometry>
        </mxCell>
        <mxCell id="70sWbRmuA3pQO4mpQfJC-9" value="1" style="resizable=0;html=1;whiteSpace=wrap;align=right;verticalAlign=bottom;" parent="70sWbRmuA3pQO4mpQfJC-8" connectable="0" vertex="1">
          <mxGeometry x="1" relative="1" as="geometry" />
        </mxCell>
        <mxCell id="70sWbRmuA3pQO4mpQfJC-14" value="" style="endArrow=none;html=1;rounded=0;entryX=0.6;entryY=0;entryDx=0;entryDy=0;entryPerimeter=0;exitX=0.5;exitY=1;exitDx=0;exitDy=0;" parent="1" source="51rex_NYxMbLoATLT2h5-21" target="51rex_NYxMbLoATLT2h5-1" edge="1">
          <mxGeometry relative="1" as="geometry">
            <mxPoint x="410" y="428" as="sourcePoint" />
            <mxPoint x="570" y="428" as="targetPoint" />
          </mxGeometry>
        </mxCell>
        <mxCell id="70sWbRmuA3pQO4mpQfJC-15" value="1" style="resizable=0;html=1;whiteSpace=wrap;align=right;verticalAlign=bottom;" parent="70sWbRmuA3pQO4mpQfJC-14" connectable="0" vertex="1">
          <mxGeometry x="1" relative="1" as="geometry" />
        </mxCell>
        <mxCell id="70sWbRmuA3pQO4mpQfJC-16" value="" style="endArrow=none;html=1;rounded=0;entryX=0.61;entryY=-0.075;entryDx=0;entryDy=0;entryPerimeter=0;exitX=1;exitY=1;exitDx=0;exitDy=0;" parent="1" source="51rex_NYxMbLoATLT2h5-21" target="51rex_NYxMbLoATLT2h5-2" edge="1">
          <mxGeometry relative="1" as="geometry">
            <mxPoint x="410" y="428" as="sourcePoint" />
            <mxPoint x="570" y="428" as="targetPoint" />
          </mxGeometry>
        </mxCell>
        <mxCell id="70sWbRmuA3pQO4mpQfJC-17" value="1" style="resizable=0;html=1;whiteSpace=wrap;align=right;verticalAlign=bottom;" parent="70sWbRmuA3pQO4mpQfJC-16" connectable="0" vertex="1">
          <mxGeometry x="1" relative="1" as="geometry" />
        </mxCell>
        <mxCell id="70sWbRmuA3pQO4mpQfJC-18" value="" style="endArrow=none;html=1;rounded=0;exitX=0.643;exitY=0.975;exitDx=0;exitDy=0;exitPerimeter=0;entryX=0;entryY=0.5;entryDx=0;entryDy=0;" parent="1" source="51rex_NYxMbLoATLT2h5-1" target="OMhlv013ZeLLZO2xHLah-269" edge="1">
          <mxGeometry relative="1" as="geometry">
            <mxPoint x="680" y="770" as="sourcePoint" />
            <mxPoint x="300" y="690" as="targetPoint" />
          </mxGeometry>
        </mxCell>
        <mxCell id="70sWbRmuA3pQO4mpQfJC-19" value="1" style="resizable=0;html=1;whiteSpace=wrap;align=right;verticalAlign=bottom;" parent="70sWbRmuA3pQO4mpQfJC-18" connectable="0" vertex="1">
          <mxGeometry x="1" relative="1" as="geometry" />
        </mxCell>
        <mxCell id="u-cxm0eaMi2ZaoIO6NFg-2" value="Product Review" style="whiteSpace=wrap;html=1;align=center;" parent="1" vertex="1">
          <mxGeometry x="1000" y="382.87" width="100" height="40" as="geometry" />
        </mxCell>
        <mxCell id="0Y_rIjtRi29Lt4V_HM7w-1" value="Account status" style="ellipse;whiteSpace=wrap;html=1;align=center;" vertex="1" parent="1">
          <mxGeometry x="-40" y="490" width="100" height="40" as="geometry" />
        </mxCell>
        <mxCell id="0Y_rIjtRi29Lt4V_HM7w-4" value="date_of_joining" style="ellipse;whiteSpace=wrap;html=1;align=center;" vertex="1" parent="1">
          <mxGeometry x="480" y="510" width="100" height="40" as="geometry" />
        </mxCell>
        <mxCell id="0Y_rIjtRi29Lt4V_HM7w-5" value="reg_date" style="ellipse;whiteSpace=wrap;html=1;align=center;" vertex="1" parent="1">
          <mxGeometry x="-30" y="550" width="100" height="40" as="geometry" />
        </mxCell>
        <mxCell id="0Y_rIjtRi29Lt4V_HM7w-6" value="" style="endArrow=none;html=1;rounded=0;exitX=1;exitY=0.5;exitDx=0;exitDy=0;entryX=0;entryY=0.5;entryDx=0;entryDy=0;" edge="1" parent="1" source="0Y_rIjtRi29Lt4V_HM7w-1" target="51rex_NYxMbLoATLT2h5-1">
          <mxGeometry relative="1" as="geometry">
            <mxPoint x="500" y="460" as="sourcePoint" />
            <mxPoint x="660" y="460" as="targetPoint" />
          </mxGeometry>
        </mxCell>
        <mxCell id="0Y_rIjtRi29Lt4V_HM7w-7" value="" style="endArrow=none;html=1;rounded=0;exitX=1;exitY=0.5;exitDx=0;exitDy=0;entryX=0;entryY=0.75;entryDx=0;entryDy=0;" edge="1" parent="1" source="0Y_rIjtRi29Lt4V_HM7w-5" target="51rex_NYxMbLoATLT2h5-1">
          <mxGeometry relative="1" as="geometry">
            <mxPoint x="500" y="460" as="sourcePoint" />
            <mxPoint x="660" y="460" as="targetPoint" />
          </mxGeometry>
        </mxCell>
        <mxCell id="0Y_rIjtRi29Lt4V_HM7w-8" value="" style="endArrow=none;html=1;rounded=0;exitX=1;exitY=0.75;exitDx=0;exitDy=0;entryX=0;entryY=0.5;entryDx=0;entryDy=0;" edge="1" parent="1" source="51rex_NYxMbLoATLT2h5-2" target="0Y_rIjtRi29Lt4V_HM7w-4">
          <mxGeometry relative="1" as="geometry">
            <mxPoint x="500" y="460" as="sourcePoint" />
            <mxPoint x="660" y="460" as="targetPoint" />
          </mxGeometry>
        </mxCell>
        <mxCell id="0Y_rIjtRi29Lt4V_HM7w-10" value="" style="shape=link;html=1;rounded=0;entryX=0;entryY=0;entryDx=0;entryDy=0;exitX=0.5;exitY=1;exitDx=0;exitDy=0;" edge="1" parent="1" target="0Y_rIjtRi29Lt4V_HM7w-9">
          <mxGeometry relative="1" as="geometry">
            <mxPoint x="930" y="1004.96" as="sourcePoint" />
            <mxPoint x="1171" y="1145" as="targetPoint" />
          </mxGeometry>
        </mxCell>
        <mxCell id="0Y_rIjtRi29Lt4V_HM7w-9" value="has" style="shape=rhombus;perimeter=rhombusPerimeter;whiteSpace=wrap;html=1;align=center;" vertex="1" parent="1">
          <mxGeometry x="870" y="949.96" width="120" height="70.04" as="geometry" />
        </mxCell>
        <mxCell id="0Y_rIjtRi29Lt4V_HM7w-12" value="given" style="shape=rhombus;perimeter=rhombusPerimeter;whiteSpace=wrap;html=1;align=center;" vertex="1" parent="1">
          <mxGeometry x="990" y="530" width="120" height="60" as="geometry" />
        </mxCell>
        <mxCell id="0Y_rIjtRi29Lt4V_HM7w-13" value="delievered to" style="shape=rhombus;perimeter=rhombusPerimeter;whiteSpace=wrap;html=1;align=center;" vertex="1" parent="1">
          <mxGeometry x="470.13" y="1020.62" width="120" height="60" as="geometry" />
        </mxCell>
        <mxCell id="0Y_rIjtRi29Lt4V_HM7w-15" value="consist" style="shape=rhombus;perimeter=rhombusPerimeter;whiteSpace=wrap;html=1;align=center;" vertex="1" parent="1">
          <mxGeometry x="670" y="1420.62" width="120" height="60" as="geometry" />
        </mxCell>
        <mxCell id="0Y_rIjtRi29Lt4V_HM7w-16" value="Product Varient" style="whiteSpace=wrap;html=1;align=center;" vertex="1" parent="1">
          <mxGeometry x="1175" y="1150" width="100" height="40" as="geometry" />
        </mxCell>
        <mxCell id="0Y_rIjtRi29Lt4V_HM7w-17" value="Order_Cart_Items" style="whiteSpace=wrap;html=1;align=center;" vertex="1" parent="1">
          <mxGeometry x="999.64" y="1450" width="100" height="40" as="geometry" />
        </mxCell>
        <mxCell id="0Y_rIjtRi29Lt4V_HM7w-20" value="" style="shape=link;html=1;rounded=0;entryX=1;entryY=0.5;entryDx=0;entryDy=0;exitX=0;exitY=0.25;exitDx=0;exitDy=0;" edge="1" parent="1" source="OMhlv013ZeLLZO2xHLah-44" target="OMhlv013ZeLLZO2xHLah-269">
          <mxGeometry relative="1" as="geometry">
            <mxPoint x="760" y="750" as="sourcePoint" />
            <mxPoint x="920" y="750" as="targetPoint" />
          </mxGeometry>
        </mxCell>
        <mxCell id="0Y_rIjtRi29Lt4V_HM7w-21" value="N" style="resizable=0;html=1;whiteSpace=wrap;align=right;verticalAlign=bottom;" connectable="0" vertex="1" parent="0Y_rIjtRi29Lt4V_HM7w-20">
          <mxGeometry x="1" relative="1" as="geometry" />
        </mxCell>
        <mxCell id="0Y_rIjtRi29Lt4V_HM7w-22" value="" style="shape=link;html=1;rounded=0;entryX=1;entryY=0.5;entryDx=0;entryDy=0;exitX=0;exitY=0;exitDx=0;exitDy=0;" edge="1" parent="1" source="OMhlv013ZeLLZO2xHLah-44" target="OMhlv013ZeLLZO2xHLah-274">
          <mxGeometry relative="1" as="geometry">
            <mxPoint x="760" y="750" as="sourcePoint" />
            <mxPoint x="920" y="750" as="targetPoint" />
          </mxGeometry>
        </mxCell>
        <mxCell id="0Y_rIjtRi29Lt4V_HM7w-23" value="N" style="resizable=0;html=1;whiteSpace=wrap;align=right;verticalAlign=bottom;" connectable="0" vertex="1" parent="0Y_rIjtRi29Lt4V_HM7w-22">
          <mxGeometry x="1" relative="1" as="geometry" />
        </mxCell>
        <mxCell id="0Y_rIjtRi29Lt4V_HM7w-24" value="" style="endArrow=none;html=1;rounded=0;entryX=0.5;entryY=1;entryDx=0;entryDy=0;exitX=0.25;exitY=0;exitDx=0;exitDy=0;" edge="1" parent="1" source="OMhlv013ZeLLZO2xHLah-44" target="0Y_rIjtRi29Lt4V_HM7w-12">
          <mxGeometry relative="1" as="geometry">
            <mxPoint x="1060" y="760" as="sourcePoint" />
            <mxPoint x="1040" y="580" as="targetPoint" />
          </mxGeometry>
        </mxCell>
        <mxCell id="0Y_rIjtRi29Lt4V_HM7w-25" value="1" style="resizable=0;html=1;whiteSpace=wrap;align=right;verticalAlign=bottom;" connectable="0" vertex="1" parent="0Y_rIjtRi29Lt4V_HM7w-24">
          <mxGeometry x="1" relative="1" as="geometry" />
        </mxCell>
        <mxCell id="0Y_rIjtRi29Lt4V_HM7w-26" value="includes" style="shape=rhombus;perimeter=rhombusPerimeter;whiteSpace=wrap;html=1;align=center;" vertex="1" parent="1">
          <mxGeometry x="941" y="1260.6200000000001" width="120" height="60" as="geometry" />
        </mxCell>
        <mxCell id="0Y_rIjtRi29Lt4V_HM7w-29" value="" style="shape=link;html=1;rounded=0;exitX=0.5;exitY=0;exitDx=0;exitDy=0;entryX=0.5;entryY=1;entryDx=0;entryDy=0;" edge="1" parent="1" source="0Y_rIjtRi29Lt4V_HM7w-17" target="0Y_rIjtRi29Lt4V_HM7w-26">
          <mxGeometry relative="1" as="geometry">
            <mxPoint x="940" y="1270" as="sourcePoint" />
            <mxPoint x="1100" y="1270" as="targetPoint" />
          </mxGeometry>
        </mxCell>
        <mxCell id="0Y_rIjtRi29Lt4V_HM7w-30" value="N" style="resizable=0;html=1;whiteSpace=wrap;align=right;verticalAlign=bottom;" connectable="0" vertex="1" parent="0Y_rIjtRi29Lt4V_HM7w-29">
          <mxGeometry x="1" relative="1" as="geometry" />
        </mxCell>
        <mxCell id="0Y_rIjtRi29Lt4V_HM7w-31" value="" style="endArrow=none;html=1;rounded=0;exitX=0;exitY=0.75;exitDx=0;exitDy=0;entryX=0.5;entryY=0;entryDx=0;entryDy=0;" edge="1" parent="1" source="0Y_rIjtRi29Lt4V_HM7w-16" target="0Y_rIjtRi29Lt4V_HM7w-26">
          <mxGeometry relative="1" as="geometry">
            <mxPoint x="940" y="1270" as="sourcePoint" />
            <mxPoint x="1100" y="1270" as="targetPoint" />
          </mxGeometry>
        </mxCell>
        <mxCell id="0Y_rIjtRi29Lt4V_HM7w-32" value="1" style="resizable=0;html=1;whiteSpace=wrap;align=right;verticalAlign=bottom;" connectable="0" vertex="1" parent="0Y_rIjtRi29Lt4V_HM7w-31">
          <mxGeometry x="1" relative="1" as="geometry" />
        </mxCell>
        <mxCell id="0Y_rIjtRi29Lt4V_HM7w-33" value="" style="shape=link;html=1;rounded=0;entryX=0;entryY=0.5;entryDx=0;entryDy=0;exitX=1;exitY=0.75;exitDx=0;exitDy=0;" edge="1" parent="1" source="OMhlv013ZeLLZO2xHLah-89" target="0Y_rIjtRi29Lt4V_HM7w-15">
          <mxGeometry relative="1" as="geometry">
            <mxPoint x="560" y="1490" as="sourcePoint" />
            <mxPoint x="720" y="1490" as="targetPoint" />
          </mxGeometry>
        </mxCell>
        <mxCell id="0Y_rIjtRi29Lt4V_HM7w-34" value="1" style="resizable=0;html=1;whiteSpace=wrap;align=right;verticalAlign=bottom;" connectable="0" vertex="1" parent="0Y_rIjtRi29Lt4V_HM7w-33">
          <mxGeometry x="1" relative="1" as="geometry" />
        </mxCell>
      </root>
    </mxGraphModel>
  </diagram>
</mxfile>
